<svg width="25" height="26" viewBox="0 0 25 26" fill="none" xmlns="http://www.w3.org/2000/svg">
<path d="M22.9167 12.9528C22.9167 13.5278 22.4511 13.9944 21.8751 13.9944H5.63971L11.1532 19.5079C11.5605 19.9152 11.5605 20.5736 11.1532 20.9809C10.9501 21.184 10.6834 21.2861 10.4167 21.2861C10.1501 21.2861 9.88336 21.184 9.68024 20.9809L2.38959 13.6903C2.29271 13.5934 2.21663 13.4789 2.1635 13.3508C2.05829 13.0966 2.05829 12.8089 2.1635 12.5548C2.21663 12.4266 2.29271 12.3121 2.38959 12.2153L9.68024 4.92461C10.0875 4.51732 10.7459 4.51732 11.1532 4.92461C11.5605 5.3319 11.5605 5.9903 11.1532 6.39759L5.63971 11.9111H21.8751C22.4511 11.9111 22.9167 12.3778 22.9167 12.9528Z" fill="black"/>
</svg>
