<svg width="15" height="8" viewBox="0 0 15 8" fill="none" xmlns="http://www.w3.org/2000/svg">
<path d="M14.5791 0.360436C14.3125 0.129579 13.9518 0 13.5759 0C13.2 0 12.8394 0.129579 12.5728 0.360436L7.46443 4.74825L2.42724 0.360436C2.16063 0.129579 1.79999 0 1.42407 0C1.04815 0 0.687506 0.129579 0.420902 0.360436C0.287532 0.475663 0.181674 0.612752 0.109433 0.763796C0.0371927 0.91484 0 1.07685 0 1.24048C0 1.4041 0.0371927 1.56611 0.109433 1.71716C0.181674 1.8682 0.287532 2.00529 0.420902 2.12052L6.45414 7.37597C6.58642 7.49215 6.7438 7.58436 6.9172 7.64729C7.0906 7.71021 7.27658 7.74261 7.46443 7.74261C7.65227 7.74261 7.83826 7.71021 8.01165 7.64729C8.18505 7.58436 8.34243 7.49215 8.47471 7.37597L14.5791 2.12052C14.7125 2.00529 14.8183 1.8682 14.8906 1.71716C14.9628 1.56611 15 1.4041 15 1.24048C15 1.07685 14.9628 0.91484 14.8906 0.763796C14.8183 0.612752 14.7125 0.475663 14.5791 0.360436Z" fill="black"/>
</svg>
