<svg xmlns="http://www.w3.org/2000/svg" width="51" height="46" viewBox="0 0 51 46" fill="none">
<path d="M25.5 3.79688C13.7636 3.79688 4.25 12.297 4.25 22.783C4.25 33.269 13.7636 41.7691 25.5 41.7691C37.2364 41.7691 46.75 33.269 46.75 22.783C46.75 12.297 37.2364 3.79688 25.5 3.79688ZM35.4345 22.6919C34.1149 28.7732 25.5 32.2761 25.5 32.2761C25.5 32.2761 16.8851 28.7732 15.5655 22.6919C14.7559 18.9611 16.5241 15.2075 21.0248 15.1885C24.376 15.1734 25.5 18.1921 25.5 18.1921C25.5 18.1921 26.624 15.1734 29.9752 15.1885C34.4844 15.2075 36.2441 18.9611 35.4345 22.6919Z" fill="#000"/>
</svg>