<svg xmlns="http://www.w3.org/2000/svg" width="35" height="35" viewBox="0 0 35 35" fill="none">
<path d="M17.5 24.792L17.2929 25.2471L17.5 25.3413L17.7071 25.2471L17.5 24.792ZM17.5 24.792C17.7071 25.2471 17.7073 25.247 17.7075 25.2469M17.5 24.792C17.2929 25.2471 17.2928 25.247 17.2926 25.2469L17.2921 25.2467L17.2908 25.2461L17.2865 25.2441L17.2716 25.2372C17.2634 25.2334 17.2531 25.2285 17.2405 25.2226C17.2335 25.2192 17.2258 25.2156 17.2174 25.2116C17.1708 25.1892 17.1036 25.1565 17.0185 25.1134C16.8483 25.0273 16.6062 24.8999 16.3138 24.7326C15.7297 24.3984 14.9406 23.9025 14.1209 23.2552C12.4964 21.9724 10.6783 20.0371 10.1914 17.5255C9.89654 16.0049 10.0619 14.4394 10.7552 13.2307C11.4623 11.9981 12.7006 11.1752 14.4263 11.167L17.7075 25.2469M17.5 12.8853C17.4166 12.7595 17.3208 12.6282 17.2115 12.4966C16.6672 11.8414 15.7691 11.1602 14.4265 11.167L17.5 12.8853ZM17.5 12.8853C17.5834 12.7595 17.6793 12.6282 17.7886 12.4966C18.3329 11.8414 19.231 11.1602 20.5736 11.167L17.5 12.8853ZM17.7075 25.2469L17.7079 25.2467M17.7075 25.2469L17.7079 25.2467M17.7079 25.2467L17.7093 25.2461M17.7079 25.2467L17.7093 25.2461M17.7093 25.2461L17.7136 25.2441M17.7093 25.2461L17.7136 25.2441M17.7136 25.2441L17.7285 25.2372M17.7136 25.2441L17.7285 25.2372M17.7285 25.2372C17.7411 25.2313 17.7593 25.2227 17.7826 25.2116M17.7285 25.2372L17.7826 25.2116M17.7826 25.2116C17.8292 25.1892 17.8965 25.1565 17.9816 25.1134M17.7826 25.2116L17.9816 25.1134M17.9816 25.1134C18.1517 25.0273 18.3938 24.8999 18.6863 24.7326M17.9816 25.1134L18.6863 24.7326M18.6863 24.7326C19.2703 24.3984 20.0594 23.9025 20.8792 23.2552M18.6863 24.7326L20.8792 23.2552M20.8792 23.2552C22.5037 21.9724 24.3217 20.0371 24.8087 17.5255M20.8792 23.2552L24.8087 17.5255M24.8087 17.5255C25.1034 16.0053 24.9398 14.4398 24.2472 13.231M24.8087 17.5255L24.2472 13.231M24.2472 13.231C23.5406 11.9979 22.3021 11.1752 20.5737 11.167L24.2472 13.231ZM3.41669 17.5003C3.41669 9.72209 9.72179 3.41699 17.5 3.41699C25.2783 3.41699 31.5834 9.72209 31.5834 17.5003C31.5834 25.2786 25.2783 31.5837 17.5 31.5837C9.72179 31.5837 3.41669 25.2786 3.41669 17.5003Z" fill="#ddd" stroke="#000"/>
<path d="M26.3371 16.9643C25.1632 23.0193 17.4999 26.5071 17.4999 26.5071C17.4999 26.5071 9.83663 23.0193 8.66168 16.9643C7.94109 13.2493 9.51542 9.51224 13.5177 9.49322C16.4991 9.47921 17.4999 12.4836 17.4999 12.4836C17.4999 12.4836 18.5008 9.47821 21.4812 9.49322C25.4925 9.51224 27.0577 13.2503 26.3371 16.9643Z" fill="#000"/>
</svg>