<svg width="51" height="51" viewBox="0 0 51 51" fill="none" xmlns="http://www.w3.org/2000/svg">
<path d="M25.5 4.25C13.7636 4.25 4.25 13.7636 4.25 25.5C4.25 37.2364 13.7636 46.75 25.5 46.75C37.2364 46.75 46.75 37.2364 46.75 25.5C46.75 13.7636 37.2364 4.25 25.5 4.25ZM35.4345 25.3981C34.1149 32.2044 25.5 36.125 25.5 36.125C25.5 36.125 16.8851 32.2044 15.5655 25.3981C14.7559 21.2224 16.5241 17.0212 21.0248 17C24.376 16.983 25.5 20.3617 25.5 20.3617C25.5 20.3617 26.624 16.983 29.9752 17C34.4844 17.0212 36.2441 21.2224 35.4345 25.3981Z" fill="white"/>
<path d="M38.3772 24.7196C36.6665 33.5425 25.5001 38.6248 25.5001 38.6248C25.5001 38.6248 14.3336 33.5425 12.6215 24.7196C11.5715 19.3063 13.8656 13.8608 19.6974 13.8331C24.0418 13.8127 25.5001 18.1906 25.5001 18.1906C25.5001 18.1906 26.9585 13.8112 31.3014 13.8331C37.1464 13.8608 39.4272 19.3077 38.3772 24.7196Z" fill="#FF595C"/>
</svg>
